<svg xmlns="http://www.w3.org/2000/svg" width="106.433" height="35.019" viewBox="0 0 106.433 35.019">
  <path id="Path_30" data-name="Path 30" d="M26.072-21.648a14.257,14.257,0,0,1,.385,3.535V-5.458c0,.51.079.646.6.77a6.608,6.608,0,0,0,2.787,0c.532-.091.646-.295.646-.861V-16.573a3.921,3.921,0,0,1,.952-2.651,2.927,2.927,0,0,1,2.776-1.133,2.832,2.832,0,0,1,1.563.7c.283.2.691.272.838,0a24.374,24.374,0,0,1,1.767-2.64c.227-.283-.113-.816-.714-1.054a6.439,6.439,0,0,0-5.54.374,6.685,6.685,0,0,0-1.971,1.813c-1.711-3.308-4.94-3.184-5.121-2.866S25.63-23.291,26.072-21.648ZM43.7,3.809A5.669,5.669,0,0,1,39.781.343c-.068-.476.147-.623.623-.453s.759.306,1.133.465a9.371,9.371,0,0,0,3.75.872A4.615,4.615,0,0,0,49.366-.507a3.875,3.875,0,0,0,.77-2.073c.068-1.133,0-2.266,0-3.456-.34.227-.714.51-1.133.736a7.58,7.58,0,0,1-3.858,1.055A7.591,7.591,0,0,1,38.24-8.7a10.2,10.2,0,0,1-.918-4.192,12.045,12.045,0,0,1,1.258-5.857,9.066,9.066,0,0,1,4.849-4.226,12.464,12.464,0,0,1,6.1-.793,9.322,9.322,0,0,1,3.75,1.133,1.8,1.8,0,0,1,.974,1.745v17.21A8.464,8.464,0,0,1,53.422.263C52.221,2.574,48.187,4.965,43.7,3.809Zm6.537-18.547v-4.249a1.575,1.575,0,0,0-.34-1.235,1.6,1.6,0,0,0-1.133-.589,5.358,5.358,0,0,0-6.356,3.5,11.739,11.739,0,0,0-.4,6.435,4.376,4.376,0,0,0,4.312,3.705A4.363,4.363,0,0,0,48.414-7.7a2.986,2.986,0,0,0,1.835-2.923c-.068-1.371,0-2.753,0-4.124ZM67.912-6.285a10.879,10.879,0,0,1-3.988,1.847,7.741,7.741,0,0,1-5.665-.7,4.673,4.673,0,0,1-2.345-3.886,5.565,5.565,0,0,1,1.008-4.011,7.41,7.41,0,0,1,3.07-2.266c2.175-.838,5.665-1.926,7.172-2.425.306-.1.306-.2.249-.634a2.723,2.723,0,0,0-1.835-2.345,6.663,6.663,0,0,0-4.77,0c-1.971.668-3.025,1.733-3.263,1.586a2.993,2.993,0,0,1,.51-2.481,6.177,6.177,0,0,1,4.226-2.266,12.111,12.111,0,0,1,5.37.363,5.105,5.105,0,0,1,3.58,4.067,15.148,15.148,0,0,1,.261,2.866v8.135c0,1.122.634,1.892,2.164,1.133.261-.113.465,0,.419.272A2.931,2.931,0,0,1,71.447-4.6,3.337,3.337,0,0,1,67.98-6.206Q67.948-6.247,67.912-6.285Zm-.374-5.54V-13.91c0-.714-.125-.816-.827-.68h-.147c-1.224.385-2.447.725-3.648,1.133a5.223,5.223,0,0,0-2.187,1.382A2.81,2.81,0,0,0,60-10.183,2.813,2.813,0,0,0,61.488-7.7a5.67,5.67,0,0,0,5.438-.8,1.655,1.655,0,0,0,.612-1.428c-.045-.578-.023-1.246-.023-1.892ZM81.508-7.112c-1.518.691-2.266-.079-2.266-1.133V-22.611c0-.566-.079-.827-.634-.827H75.843c-.521,0-.612.249-.612.759V-8.54a5.247,5.247,0,0,0,.476,2.345A3.15,3.15,0,0,0,77.1-4.767a3.57,3.57,0,0,0,2.187.329,2.964,2.964,0,0,0,2.628-2.447C81.95-7.192,81.757-7.26,81.508-7.112ZM77.259-26.033h0a2.391,2.391,0,0,0,2.379-2.379c0-.015,0-.03,0-.045a2.267,2.267,0,0,0-.668-1.767A2.267,2.267,0,0,0,77.2-30.9a2.4,2.4,0,0,0-1.711.68,2.369,2.369,0,0,0-.691,1.711,2.46,2.46,0,0,0,.7,1.767A2.426,2.426,0,0,0,77.259-26.033ZM14.493-29.772C8.828-31.528,3.265-28.152,1.8-24.8c0,0,5.019-3.9,10.412-2.515A10.416,10.416,0,0,1,20.033-17.23c0,4.532-2.583,7.931-5.982,9.064l-.181.057a12.481,12.481,0,0,1-1.45.227H11.5q-.148.006-.3.006a7.787,7.787,0,0,1-7.749-7.749,7.787,7.787,0,0,1,7.749-7.749q.148,0,.3.006a6.9,6.9,0,0,1,.838,0,8.394,8.394,0,0,1,3.263.85c-1.665-3.6-5.665-4.305-8.8-3.184A10.805,10.805,0,0,0,0-15.632a11.692,11.692,0,0,0,.51,3.648c1.552,5.325,6.526,8.271,12.021,7.9a14.363,14.363,0,0,0,2.776-.476c5.608-1.53,8.894-6.288,8.973-12.043A13.369,13.369,0,0,0,14.493-29.772ZM101.811-7.112c-1.53.7-2.039-.079-2.039-1.2V-18.737a5.053,5.053,0,0,0-.7-2.651,5.183,5.183,0,0,0-4.532-2.5,10.061,10.061,0,0,0-4.883,1.235,12.462,12.462,0,0,0-2.266,1.643v-1.6c0-.566-.079-.816-.612-.816H84.068c-.5,0-.589.261-.589.759V-5.413a.647.647,0,0,0,.125.476.681.681,0,0,0,.431.249H86.9c.532-.113.623-.272.623-.838v-11.25a1.768,1.768,0,0,1,.351-1.133,6.03,6.03,0,0,1,4.362-2.7,2.939,2.939,0,0,1,2.968,1.269,4.033,4.033,0,0,1,.51,2.266v8.724a5.316,5.316,0,0,0,.521,2.277,3.4,3.4,0,0,0,3.4,1.563,2.942,2.942,0,0,0,2.628-2.447C102.3-7.192,102.071-7.26,101.811-7.112Zm1.224.94a1.708,1.708,0,0,1,1.7-1.7,1.708,1.708,0,0,1,1.7,1.7,1.708,1.708,0,0,1-1.7,1.7A1.708,1.708,0,0,1,103.034-6.172Zm3.195,0a1.463,1.463,0,0,0-.748-1.314,1.486,1.486,0,0,0-1.518,0,1.475,1.475,0,0,0-.725,1.326,1.475,1.475,0,0,0,.748,1.314,1.52,1.52,0,0,0,1.518,0A1.5,1.5,0,0,0,106.229-6.172Zm-2.2-.94h.8a.77.77,0,0,1,.555.2.487.487,0,0,1,.147.385.557.557,0,0,1-.374.566l.442.634h-.465l-.4-.566h-.306v.578h-.408Zm.8.884c.2,0,.317-.113.317-.261,0-.17-.125-.261-.329-.261h-.385v.532Z" transform="translate(0 30.909)" fill-rule="evenodd" opacity="0.5"/>
</svg>
