<svg xmlns="http://www.w3.org/2000/svg" width="92.553" height="54.242" viewBox="0 0 92.553 54.242">
  <g id="Group_13" data-name="Group 13" opacity="0.5">
    <path id="Path_33" data-name="Path 33" d="M90.065-75.1c2.059,1.287,2.513,2.621,2.487,3.59v21.1a3.246,3.246,0,0,1-3.288,3.2H3.285A3.241,3.241,0,0,1,0-50.4v-21.13c-.017-.966.448-2.3,2.486-3.57L43.745-100.76a5.008,5.008,0,0,1,5.06,0ZM60.2-90.765a4.27,4.27,0,0,1-.164,1.021,2.587,2.587,0,0,1-2.195,1.9,9.969,9.969,0,0,1,4.527,4.24,1.607,1.607,0,0,1,.115,1.351A1.907,1.907,0,0,1,61.315-81.2H61.3l-.01.007a4.674,4.674,0,0,0-.442.154,3.52,3.52,0,0,1-1.609.263,3.781,3.781,0,0,1-.927,2.013,1.232,1.232,0,0,0-.2.293,1.4,1.4,0,0,0,.051.7,4.089,4.089,0,0,1,.132,1.022c-.045,1.757-1.536,3.015-3.327,4.545-.368.319-.04,0-.419.336a6.417,6.417,0,0,1,1.467,1.1H87.993c2.37,0,2.677-1.015.683-2.262ZM50.839-88.31a1.344,1.344,0,0,0-1.616.3A.955.955,0,0,1,48-88.236a3.342,3.342,0,0,0-.795-.856c-.344-.275-.9-.072-1.325.209a2.21,2.21,0,0,1-2.019.125c-1.175-.611-2.772-.389-3.33.472a2.968,2.968,0,0,1-2.212,1.134,17.86,17.86,0,0,0-8.528,4.577c-.379.469-.7,1.176.549,1.486,2.4.624,4.175,1,7.03-.644,1.15-.8,1.07-.005.322.813a7.655,7.655,0,0,1-.89.734A5.689,5.689,0,0,1,35.745-76.9c-6.429,6.938-.938,6.127,1.276,6.127a30.047,30.047,0,0,1,5.182.432c1.554.247,5.824,1.738,8.25,1.95a5.8,5.8,0,0,0,1.972-.1,1.971,1.971,0,0,0,.829-.674c.505-.869-.348-.94-.75-.938-.6,0-.509.8-1.013.8-.394.007-.6-.48-.552-.841.033-.328.691-.969,1.182-1.527,1.961-2.189,4.827-2.9,4.86-5.834.008-.815-1.013-.179-.979-.61.021-.344,1.776-1.593,1.851-2.98l.019-.38c.024-.388-.76-1.015-1.488-1.053L52.7-82.6a2.252,2.252,0,0,0-1.033.4c-1,1.257-1.482.8-.892-.268a1.569,1.569,0,0,1,1.365-.906c.428-.012.806-.186,1.229-.18-.167-.686-.033-1.372.761-1.553.437-.124.537-.567.583-1.2l.029-.348c.007-.076.011-.687-.438-.708-.8-.026-1.6,1.473-1.864,1.466a.323.323,0,0,1-.3-.48,4.2,4.2,0,0,1,1.95-2.036c.233-.1-.246-.426-.417-.438-.612-.281-.995.12-1.469.29A1.464,1.464,0,0,1,50.839-88.31ZM38.353-76.763c.5.03.43.5.373.809a1.681,1.681,0,0,0,.049.9,2.216,2.216,0,0,0,1.343,1.083,13.22,13.22,0,0,1,3.435,1.593l.107.1-.145.642-.722-.08a6.512,6.512,0,0,0-2.045-.7c-1.79-.418-4.01-.936-3.348-3.381C37.526-76.3,37.871-76.8,38.353-76.763ZM37.7-83.456a11.658,11.658,0,0,0-6.232,1.466l-.219-.243a14.493,14.493,0,0,1,7.484-3.407l.307-.058-1.205,2.243Zm8.084-2.229a3.948,3.948,0,0,1-1.833-.766,2.009,2.009,0,0,0-.884-.409c-1.252-.053-1.635,1.119-1.991,2.187a7.061,7.061,0,0,1-.353.928l-.072.088a.362.362,0,0,1-.3.1.38.38,0,0,1-.334-.153,4.331,4.331,0,0,1-.03-2.025A3.4,3.4,0,0,1,42.1-88.1l.193-.07a2.956,2.956,0,0,1,2.5.874c.094.077.23.185.376.294.89.7,1.137.975,1.019,1.187C46.124-85.7,45.974-85.665,45.782-85.685Zm-1.4,5.534a17.706,17.706,0,0,0,1.208,1.565,1.791,1.791,0,0,0,.128.148c.4.434,1.066,1.16,3.1,1.053.224-.011.609-.06,1.067-.12a11.688,11.688,0,0,1,3.4-.121l-.035.169a12.413,12.413,0,0,0-2.965.522,1.086,1.086,0,0,1-.2.059l-1.755.333c-1.275.231-4.6-.7-5.279-1.487a1.03,1.03,0,0,1-.187-.874,1.2,1.2,0,0,1,.241-.531c.307-.223,1.1-.717,1.139-.743ZM57.272-81.3v.014a2.733,2.733,0,0,1-2.779,2.522,2.43,2.43,0,0,1-2.526-2.564l0-.015a.6.6,0,0,1,.608-.525.509.509,0,0,1,.527.535v.015a1.4,1.4,0,0,0,1.451,1.468A1.585,1.585,0,0,0,56.169-81.3v-.015a.551.551,0,0,1,.571-.518A.52.52,0,0,1,57.272-81.3Zm-5.218,6.913c-.381,1.6-1.5,3.361-3.463,3.368h-.46a1.943,1.943,0,0,1-1.371-.734.9.9,0,0,1-.3-.68.4.4,0,0,1,.125-.242.7.7,0,0,1,.448-.117l.074.007,1.205,0a1.661,1.661,0,0,0,.472-.008l.146,0c.46-.008,1.312-.044,2.811-1.732l.485-.541Zm-3.786-9.366c-.091.086-.245.109-.56.056a13.455,13.455,0,0,0-1.444.089,1.419,1.419,0,0,1-1.433,1.14,1.217,1.217,0,0,1-.922-.4.879.879,0,0,1-.2-.792,1.233,1.233,0,0,1,.264-.535,1.416,1.416,0,0,0-1.348.5c-.267.317-.561.357-.729.275s-.168-.261-.066-.428a3.622,3.622,0,0,1,2.552-1.687,2.19,2.19,0,0,1,1.961.9c.575.167,1.789.528,1.921.61l.052.082A.178.178,0,0,1,48.269-83.755ZM15.5-55.314l-1.869.043c-1.227.019-2.141.061-3.469.123.291-1.079.541-2.2.748-3.3,1.35,0,2.762,0,4.113.02.539,0,.769,0,.893-.188a12.673,12.673,0,0,0,.519-2.139c0-.353-.271-.353-.767-.353-1.85,0-2.534.021-4.217.083.311-1.351.333-1.515.6-2.824l3.739.021c1.1,0,1.142-.041,1.245-.145a12.3,12.3,0,0,0,.539-2.182c0-.269-.206-.31-.413-.31-.126-.021-.853-.021-1.039-.021-.956,0-5.734.061-6.814.061-.58,0-.809.063-1.017,1.123-.374,1.867-.415,2.075-.789,3.841-.206,1.017-1.723,8.225-1.723,8.433,0,.373.145.394,1.059.394l8.017-.021c.686,0,.706-.1.936-1.142.021-.167.249-1,.249-1.184C16.042-55.314,15.669-55.314,15.5-55.314ZM27.135-55.6c-1.206,0-3.552.084-4.819.124.332-1.682,2.181-10.156,2.181-10.571,0-.166-.021-.332-.208-.374a10.511,10.511,0,0,0-1.434-.061c-.414,0-1.453,0-1.786.04a.5.5,0,0,0-.518.415c-.166.623-.935,4.2-2.41,11.216-.188.914-.353,1.662-.353,1.766,0,.415.186.415,1.434.415,2.325,0,5.192,0,7.477-.041.269-.022.374-.063.437-.166a11.179,11.179,0,0,0,.559-2.389C27.695-55.481,27.57-55.6,27.135-55.6ZM55.408-87.812a1.453,1.453,0,0,1,.132,1.548,8.437,8.437,0,0,1,3.663,3,9.224,9.224,0,0,0-3.839-1.459c.2.129.213.69-.126.988.721-.223,3.109.478,3.417,1.081a1.8,1.8,0,0,0,1.969.379c.811-.22.479-1.093.014-1.78A11.646,11.646,0,0,0,55.408-87.812Zm-13.3,35.26,2.492-.1c.456-.021.581-.165.644-.333.146-.416.374-4.487.416-5.3.061-1.1.457-6.46.457-7.685,0-.249,0-.56-.29-.623-.292-.041-1.787-.041-2.2-.041-.685,0-1.038.084-1.371.6-.394.622-3.988,6.688-4.383,7.332-.186-1.164-1.12-6.938-1.2-7.311-.124-.539-.249-.623-.666-.623-.5,0-1.91.1-2.452.146-.684.04-.85.061-.974.186-.1.1-.146.125-.582,1.621-.581,2.076-.686,2.409-1.558,5.442C29.9-57.287,28.8-53.216,28.8-52.9c0,.333.271.333.581.333.126,0,1.287-.043,1.517-.043.726-.021.809-.021.913-.228.229-.374,1.808-7.041,2.161-8.37.311,2.534.914,5.628,1.184,6.936.228,1.205.331,1.7.809,1.7a2.751,2.751,0,0,0,.79-.208c.6-.25.913-.52,1.537-1.581.271-.433,3.552-5.751,4.028-6.561-.476,4.507-.727,7.892-.727,7.975C41.59-52.593,41.757-52.551,42.11-52.551Zm15.144-2.763-1.87.043c-1.225.02-2.139.062-3.47.124.292-1.081.542-2.2.75-3.3,1.349,0,2.762,0,4.11.02.542,0,.77,0,.895-.187a12.719,12.719,0,0,0,.519-2.14c0-.352-.27-.352-.768-.352-1.849,0-2.534.02-4.217.082.312-1.351.332-1.515.6-2.823l3.739.02c1.1,0,1.142-.041,1.245-.145a12.456,12.456,0,0,0,.542-2.182c0-.269-.209-.31-.417-.31-.125-.021-.851-.021-1.038-.021-.955,0-5.732.061-6.813.061-.581,0-.809.063-1.016,1.123-.375,1.869-.416,2.077-.789,3.841-.208,1.019-1.724,8.225-1.724,8.433,0,.374.144.394,1.059.394l8.017-.02c.685,0,.706-.1.935-1.144.021-.165.249-1,.249-1.184C57.793-55.314,57.42-55.314,57.254-55.314Zm19.52,2.826a13.235,13.235,0,0,0,2.783.331c3.968,0,6.543-2.242,6.543-4.59,0-1.288-.623-1.911-2.575-3.927-.957-.976-1.143-1.309-1.143-1.827,0-.456.394-1.536,2.409-1.536.249,0,1.474.082,1.495.082.353,0,.353-.042.685-1.331a4.646,4.646,0,0,0,.23-1.037c0-.187-.083-.249-.25-.311A9.794,9.794,0,0,0,85-66.779c-4.63,0-6.727,2.41-6.727,4.632,0,1.309.726,2.2,2.2,3.8,1.142,1.226,1.412,1.538,1.412,2.1,0,.749-.789,1.351-1.952,1.351a12.849,12.849,0,0,1-1.952-.186c-.1-.022-.685-.146-.81-.146-.271,0-.334.207-.458.706a6.833,6.833,0,0,0-.332,1.641C76.38-52.7,76.4-52.593,76.774-52.488Zm-.423-10.236a17.953,17.953,0,0,0,1.607-3.618c-.041-.313-.136-.32-.964-.493a6.407,6.407,0,0,0-.952-.118c-.257.034-.6.83-.749,1.147A24.644,24.644,0,0,0,74-62.546a.535.535,0,0,0,.055.142,5.256,5.256,0,0,0,1.577.6C75.849-61.832,75.971-62.055,76.351-62.724ZM35.436-92.689a.465.465,0,0,0,.083.183c.313.44,1.428.386,2.722.322.541-.017,1.089-.038,1.641-.033a1.331,1.331,0,0,1,.565-.892,2.281,2.281,0,0,1,1.352-.418c.116-.009.475-.007,1.075.015a4.439,4.439,0,0,0,.758-.334,4.712,4.712,0,0,1,1.886-.652l.452.027a.825.825,0,0,1,.424.151,1.15,1.15,0,0,0,.62.182,1.2,1.2,0,0,0,.475-.09,2.293,2.293,0,0,1,.924-.158,2.78,2.78,0,0,1,1.5.421,2.784,2.784,0,0,0,1.406.4,3.582,3.582,0,0,1,2.045.681.807.807,0,0,1,.227.553c.275.028.536.055.8.088,1.023.118,1.994.235,2.378-.15a.718.718,0,0,0,.19-.393l-8.866-5.524a3.757,3.757,0,0,0-3.638,0Zm5.133,3.279c.4-.682.719-2.093-2.135-1.821-2.7.256-4.384.293-3.977-1.645-2.387.748-2.865,3.254-1.527,4.068C35.722-87.125,39.874-88.143,40.569-89.409Zm11.96-.672c.368-.076.922.157,1.131.03a.166.166,0,0,0,.061-.21,13.5,13.5,0,0,1-1.335-.952c-.544-.517.007-1.542-1.1-1.5a6.407,6.407,0,0,1-1.222,0c-.747-.117-1.156-.705-1.692-.735-.716-.045-.749.444-1.487.4-.592-.035-.7-.344-1.186-.37-.995-.06-1.348.8-2.023.755l-.682-.031a1.862,1.862,0,0,0-1.571.42c-.48.473.563.319.676,1.11.035.251-.42,1.121.05.914a3.367,3.367,0,0,1,2.355.165c.914.518,1.141-.357,2.035-.416a2.1,2.1,0,0,1,1.362.413c.3.25.481.658.909.765.305.074.593-.323,1.159-.351s.892.219,1.247.2C51.762-89.512,51.943-89.966,52.529-90.081Zm.986-1.44c.634.545,1.084.857,1.668,1.326a.781.781,0,0,1-.076,1.305,6.425,6.425,0,0,0,2.964-.176,2.112,2.112,0,0,0-.283-3.78C57.653-91.055,55.849-91.123,53.515-91.521ZM29.05-70.76a16.98,16.98,0,0,1,4.8-6.068,5.106,5.106,0,0,0,1.042-2.686c-2,.534-3.858.274-6.4-.344a1.593,1.593,0,0,1-1.276-1.437,1.7,1.7,0,0,1,.71-1.318,17.324,17.324,0,0,1,6.364-4.445c-2.769-.207-3.212-1.322-3.449-2.624l-.011,0,0-.014q0-.06,0-.121L3.875-73.023c-1.994,1.248-1.686,2.262.684,2.262ZM60.515-52.551l2.243-.02c.561,0,.664-.084.747-.4.062-.31.645-3.155.79-3.757a13.5,13.5,0,0,0,1.631-.191c.359.652,2.63,4.09,2.973,4.551.227.328.33.354.413.36a3.343,3.343,0,0,0,.506-.09c.254-.066,1.467-.464,1.743-.529.912-.271,1-.307,1.011-.494.005-.082-.01-.166-.238-.473-1.379-1.78-2.775-3.757-3.158-4.3A7.4,7.4,0,0,0,71-59.01a5.139,5.139,0,0,0,1.87-3.781,3.425,3.425,0,0,0-1.538-2.97c-1.329-.809-3.381-.851-5.042-.851a28.827,28.827,0,0,0-3.344.126c-.333.04-.5.082-.6.372-.187.458-2.908,12.463-2.908,13.189C59.434-52.571,59.621-52.571,60.515-52.551Zm7.1-7.54a5.107,5.107,0,0,1-2.737.707c.248-1.1.893-3.822,1.06-4.674a8.832,8.832,0,0,1,1.012-.042c1.08,0,2.077.354,2.077,1.474A3.219,3.219,0,0,1,67.613-60.091Z" transform="translate(0 101.447)"/>
  </g>
</svg>
