<svg xmlns="http://www.w3.org/2000/svg" width="25.247" height="24.116" viewBox="0 0 25.247 24.116">
  <path id="Icon_awesome-star-half-alt" data-name="Icon awesome-star-half-alt" d="M23.953,8.078l-6.894-1L13.978.839a1.513,1.513,0,0,0-2.709,0L8.188,7.074l-6.895,1a1.507,1.507,0,0,0-.836,2.571L5.445,15.5l-1.18,6.852a1.511,1.511,0,0,0,1.489,1.764,1.488,1.488,0,0,0,.7-.177L12.622,20.7l6.167,3.236a1.507,1.507,0,0,0,2.19-1.587L19.8,15.5l4.989-4.851a1.507,1.507,0,0,0-.835-2.572Zm-5.734,5.8-.853.83.2,1.172.919,5.344L13.676,18.7l-1.054-.553V3.209l2.4,4.865.527,1.066,1.178.171,5.38.783-3.893,3.786Z" transform="translate(0)" fill="#ff6f00"/>
</svg>
