<svg xmlns="http://www.w3.org/2000/svg" width="112.164" height="25.951" viewBox="0 0 112.164 25.951">
  <g id="Group_12" data-name="Group 12" transform="translate(0 0)" opacity="0.5">
    <path id="Path_32" data-name="Path 32" d="M107.57,2.558h4.593V-22.905H107.57Zm-42.544-5.4c-1,3.179-3.3,5.885-8.612,5.885-5.681,0-9.549-4.06-9.549-10.312,0-5.968,4.069-9.947,9.428-9.947,6.124,0,9.1,4.263,9.1,10.191,0,.325,0,.853,0,1.177H51.338c.323,2.639,1.974,5.031,5.358,5a4.577,4.577,0,0,0,3.991-2ZM51.459-9.3h9.348a4.279,4.279,0,0,0-4.513-4.223A4.686,4.686,0,0,0,51.459-9.3ZM99.121-2.839a4.577,4.577,0,0,1-3.991,2c-3.384.027-5.035-2.365-5.358-5h14.058c0-.325,0-.853,0-1.177,0-5.928-2.976-10.191-9.1-10.191-5.359,0-9.428,3.979-9.428,9.947,0,6.252,3.868,10.312,9.549,10.312,5.312,0,7.616-2.706,8.611-5.885ZM94.727-13.52A4.279,4.279,0,0,1,99.24-9.3H89.892A4.686,4.686,0,0,1,94.727-13.52ZM25.267-2.346h-4.9V-17.93H4.9v-4.938H25.267ZM4.9-17.93H0V2.593H20.366V-2.346H4.9Zm79.782,1.205L77.547,2.63h-4.3L66.114-16.724h4.741l4.385,12.8.139.576.134-.554,4.43-12.825ZM38.586,2.558h4.593V-22.9H38.586Z" transform="translate(0 22.905)" fill-rule="evenodd"/>
  </g>
</svg>
