<svg xmlns="http://www.w3.org/2000/svg" width="143.155" height="29.993" viewBox="0 0 143.155 29.993">
  <g id="Group_11" data-name="Group 11" opacity="0.5">
    <path id="Path_31" data-name="Path 31" d="M24.6-38.576a3.291,3.291,0,0,0-2.217.531,2.347,2.347,0,0,0-.563,1.856v17.813l.047,2.484a1.154,1.154,0,0,1-.072.454.238.238,0,0,1-.216.167.841.841,0,0,1-.455-.256,8.619,8.619,0,0,1-.888-.937L5.274-33.943v14.47a4.232,4.232,0,0,0,.791,2.937,3.044,3.044,0,0,0,2.374.788v.573l-1.99-.047-1.989-.048c-.624,0-1.331.024-1.948.048s-1.145.047-1.409.047H.575v-.573H.767a3.17,3.17,0,0,0,2.163-.6,2.926,2.926,0,0,0,.761-2.316V-35.9l-.048-.072L3.6-36.044a8.258,8.258,0,0,0-1.4-1.5,6.5,6.5,0,0,0-1.331-.889l-.432-.119L0-38.671V-39.2H5.9l7.192,8.286,7.193,8.285v-13.8a1.8,1.8,0,0,0-.941-1.63,4.815,4.815,0,0,0-2.416-.519v-.573h7.912v.573Zm26,21.662h1.247a.826.826,0,0,1,.125.006.858.858,0,0,1,.161.041v.334l-2.709.979-2.709.979v-3.1l-.072.071-.072.072a12.915,12.915,0,0,1-2.805,2.376,4.352,4.352,0,0,1-2.086.728,3.749,3.749,0,0,1-3.195-1.54,6.855,6.855,0,0,1-1.073-4.047v-7.451a4.005,4.005,0,0,0-.462-2.411c-.341-.43-.905-.549-1.792-.549a.774.774,0,0,1-.24-.018c-.048-.018-.072-.054-.1-.125v-.478L40.19-31v9.695a7.948,7.948,0,0,0,.563,3.522,2.119,2.119,0,0,0,2.074,1.158,3.574,3.574,0,0,0,1.839-.454,9.34,9.34,0,0,0,1.948-1.6v-9.026a3.246,3.246,0,0,0-.474-2.113,2.5,2.5,0,0,0-2.019-.609.383.383,0,0,1-.174-.018c-.03-.018-.041-.054-.066-.125v-.383h.192L49.444-31v3.439c0,4.942,0,7.474.144,8.835S50.019-17.177,50.594-16.913Zm74.9-.96a2.514,2.514,0,0,0,.4,1.738,2.156,2.156,0,0,0,1.618.412.359.359,0,0,1,.078.006.468.468,0,0,1,.114.041v.477h-7.049v-.477c1.1-.167,1.654-.25,1.93-.525s.275-.741.275-1.672v-8.357a4.2,4.2,0,0,0-.695-2.567,2.377,2.377,0,0,0-1.99-.919,2.305,2.305,0,0,0-1.331.269,29.329,29.329,0,0,0-2.7,1.881L116.092-17.4a1.569,1.569,0,0,0,.491,1.38,2.951,2.951,0,0,0,1.714.34v.477h-6.952v-.477l.816-.047a1.069,1.069,0,0,0,.982-.537,3.469,3.469,0,0,0,.264-1.612v-9.694a1.269,1.269,0,0,0-.713-1.284,4.1,4.1,0,0,0-1.685-.245v-.429l2.542-1.123,2.541-1.123v3.009l.048-.047.047-.048c1.99-1.409,2.985-2.113,3.651-2.465a2.877,2.877,0,0,1,1.672-.352,4.088,4.088,0,0,1,2.835,1.08A3.661,3.661,0,0,1,125.49-27.9ZM83.5-29.244a9.427,9.427,0,0,1,2.356,6.322,8.488,8.488,0,0,1-2.247,5.844,7.358,7.358,0,0,1-5.377,2.37,7.449,7.449,0,0,1-5.412-2.472A8.955,8.955,0,0,1,70.465-23.3a8.933,8.933,0,0,1,2.3-6.006,7.27,7.27,0,0,1,5.322-2.5A7.348,7.348,0,0,1,83.5-29.244ZM81.854-17.558a8.1,8.1,0,0,0,1.079-4.322,11.275,11.275,0,0,0-1.63-6,4.985,4.985,0,0,0-4.076-2.6,3.37,3.37,0,0,0-2.919,1.732,7.834,7.834,0,0,0-1.012,4.1,11.6,11.6,0,0,0,1.726,6.226A4.952,4.952,0,0,0,78.9-15.815,3.443,3.443,0,0,0,81.854-17.558Zm16.431-.171a3.5,3.5,0,0,1,1.271,2.938,4.943,4.943,0,0,1-2.452,3.94A10.214,10.214,0,0,1,91.451-9.2a10.141,10.141,0,0,1-4.5-.961c-1.157-.591-1.876-1.4-1.876-2.287a4.322,4.322,0,0,1,1.367-2.441,13.092,13.092,0,0,0,1.367-1.475c0-.168-.348-.179-.7-.383a1.567,1.567,0,0,1-.695-1.528,2.349,2.349,0,0,1,.4-1.3,8.4,8.4,0,0,1,1.33-1.517l.288-.382.288-.383a3.563,3.563,0,0,1-1.911-1.773,5.55,5.55,0,0,1-.725-2.525,5.4,5.4,0,0,1,1.732-3.9A5.929,5.929,0,0,1,91.883-31.7a4.9,4.9,0,0,1,1.7.269,10.589,10.589,0,0,1,1.99,1.022h3.788v1.48h-2.35c.288,1.075.432,1.6.5,1.917a2.311,2.311,0,0,1,.073.663,5.217,5.217,0,0,1-1.559,3.892,5.712,5.712,0,0,1-4,1.457,8.661,8.661,0,0,1-.881-.048c-.354-.036-.774-.1-1.277-.191l-.072.047-.072.047a2.129,2.129,0,0,0-.713.728,1.643,1.643,0,0,0-.246.8.762.762,0,0,0,.516.77,5.118,5.118,0,0,0,1.882.233l3.693-.047A5.535,5.535,0,0,1,98.284-17.729Zm-8.64-11.85a4.574,4.574,0,0,0-.6,2.472,6.952,6.952,0,0,0,.905,3.659,2.622,2.622,0,0,0,2.164,1.4,2.311,2.311,0,0,0,1.924-.926,3.834,3.834,0,0,0,.665-2.322,7.164,7.164,0,0,0-.953-3.648,2.9,2.9,0,0,0-2.356-1.606A2,2,0,0,0,89.644-29.579ZM97.033-12.17a2.685,2.685,0,0,0,1.319-2.185c0-.931-.192-1.385-1.259-1.605a43.66,43.66,0,0,0-6.509-.209,3.5,3.5,0,0,0-2.218.519,2.467,2.467,0,0,0-.707,2.06c0,.645.516,1.242,1.475,1.677a10.271,10.271,0,0,0,4.136.711A6.707,6.707,0,0,0,97.033-12.17ZM139.65-17c.24-.137.624-.412,1.39-.961v.908l-.047.072-.048.071a8.81,8.81,0,0,1-1.768,1.57,3,3,0,0,1-1.589.531,1.817,1.817,0,0,1-1.474-.686,3.654,3.654,0,0,1-.683-1.653l-.048.047-.048.047a12.776,12.776,0,0,1-2.679,1.671,5.791,5.791,0,0,1-2.356.526,3.186,3.186,0,0,1-2.463-1.158,4.521,4.521,0,0,1-.989-2.949,4.2,4.2,0,0,1,1.283-2.943,10.142,10.142,0,0,1,3.656-2.263l1.75-.692,1.75-.692.025-1.051.024-1.05a3.507,3.507,0,0,0-.767-2.371,2.49,2.49,0,0,0-1.918-.829,3.145,3.145,0,0,0-1.858.543,1.821,1.821,0,0,0-.779,1.51c0,.048.035.144.071.347a5.589,5.589,0,0,1,.072.991,1.249,1.249,0,0,1-.443.955,1.66,1.66,0,0,1-1.091.383,1.231,1.231,0,0,1-.959-.389,1.871,1.871,0,0,1-.384-1.283,3.47,3.47,0,0,1,1.859-2.8,7.6,7.6,0,0,1,3.944-1.116,5.267,5.267,0,0,1,3.931,1.349,5.705,5.705,0,0,1,1.343,4.143l-.048,7.5a3.584,3.584,0,0,0,.21,1.432.638.638,0,0,0,.605.43A.829.829,0,0,0,139.65-17Zm-4.406-1.193.048-6.3a18.3,18.3,0,0,0-4.285,2.244,3.018,3.018,0,0,0-1.229,2.531,3.089,3.089,0,0,0,.779,2.012,2.507,2.507,0,0,0,1.858.9,3.5,3.5,0,0,0,1.421-.334,4.518,4.518,0,0,0,1.312-.907l.048-.072Zm-98.9-2.855a1.1,1.1,0,0,1,.03.311,6.054,6.054,0,0,1-.911,2.429A11.2,11.2,0,0,1,33.981-16.2a6.373,6.373,0,0,1-1.859,1.314,4.991,4.991,0,0,1-2.074.454A6.125,6.125,0,0,1,25.3-17.066a10.135,10.135,0,0,1-2.014-6.107,9.831,9.831,0,0,1,1.87-6.059,6.078,6.078,0,0,1,4.891-2.441,5.664,5.664,0,0,1,4.226,1.892,6.51,6.51,0,0,1,1.672,4.364c0,.215-.024.322-.186.376a4.272,4.272,0,0,1-1.013.054l-4.483.024-4.483.024v.334a9.386,9.386,0,0,0,1.379,5.062,4.691,4.691,0,0,0,4.039,2.2,4.571,4.571,0,0,0,3.71-1.934c.749-.967,1.084-1.934,1.228-1.934A.208.208,0,0,1,36.348-21.048ZM26-26.415l-.024.144s5.538-.024,5.9-.149.48-.353.48-.806a3.174,3.174,0,0,0-.917-2.2,2.823,2.823,0,0,0-1.96-.907,2.97,2.97,0,0,0-2.247.991,5.291,5.291,0,0,0-1.205,2.781Zm85.57,5.368a1.1,1.1,0,0,1,.03.311,6.078,6.078,0,0,1-.893,2.394,11.021,11.021,0,0,1-1.5,2.143,6.4,6.4,0,0,1-1.858,1.3,5.044,5.044,0,0,1-2.074.472,6.106,6.106,0,0,1-4.766-2.657,10.255,10.255,0,0,1-2-6.131,9.7,9.7,0,0,1,1.888-6.036,6.1,6.1,0,0,1,4.873-2.417,5.67,5.67,0,0,1,4.225,1.874,6.5,6.5,0,0,1,1.672,4.382c0,.215-.011.322-.168.376a4.3,4.3,0,0,1-1.031.054l-4.364.024-4.363.024c-.1,0-.156.071-.192.22a3.274,3.274,0,0,0-.047.687,7.759,7.759,0,0,0,1.444,4.74,4.825,4.825,0,0,0,3.926,1.946,4.629,4.629,0,0,0,3.752-1.934c.754-.967,1.09-1.934,1.234-1.934A.207.207,0,0,1,111.567-21.048Zm-10.351-5.368-.024.144s5.587-.024,5.934-.149.444-.353.444-.806a3.15,3.15,0,0,0-.935-2.214,2.844,2.844,0,0,0-1.942-.889,2.971,2.971,0,0,0-2.248,1.009,5.341,5.341,0,0,0-1.2,2.764ZM67.923-29.283a1.3,1.3,0,0,0-.947.316,11.018,11.018,0,0,0-1.307,1.5v8.692a3.121,3.121,0,0,0,.719,2.25,2.684,2.684,0,0,0,2.014.71.678.678,0,0,1,.258.036.113.113,0,0,1,.078.108v.429h-8.3v-.525a.848.848,0,0,1,.216-.084,1.14,1.14,0,0,1,.215-.011,2.918,2.918,0,0,0,1.685-.376,1.514,1.514,0,0,0,.569-1.343l-.048-10.7a.9.9,0,0,0-.539-.932,4.688,4.688,0,0,0-1.762-.214.2.2,0,0,1-.1-.012.464.464,0,0,1-.1-.083v-.334l2.541-1,2.541-1v3.056l.1-.072.1-.071a32.6,32.6,0,0,1,2.733-2.424,1.82,1.82,0,0,1,1.295-.346,1.687,1.687,0,0,1,1.3.591,1.965,1.965,0,0,1,.474,1.272,1.7,1.7,0,0,1-.36,1.182,1.389,1.389,0,0,1-1.079.394,1.7,1.7,0,0,1-1.295-.5A1.352,1.352,0,0,0,67.923-29.283Zm-7.93,11.167a.214.214,0,0,1,.174.113.429.429,0,0,1,.066.221,2.988,2.988,0,0,1-1.66,2.335,5.542,5.542,0,0,1-2.416.865A2.837,2.837,0,0,1,53.729-15.9a6.167,6.167,0,0,1-.881-3.462V-29.912c0-.047-.12-.071-.492-.1s-.995-.047-2-.1v-.334c.216-.168.7-.347,1.259-.657a5.755,5.755,0,0,0,1.762-1.445,6.147,6.147,0,0,0,.869-1.35,17.77,17.77,0,0,0,.761-1.994h.815V-31.3h3.117V-30.1H55.821v10.746a3.39,3.39,0,0,0,.491,1.976,1.511,1.511,0,0,0,1.283.65,2.325,2.325,0,0,0,1.756-.692C59.693-17.77,59.849-18.116,59.993-18.116ZM141.342-31.14a1.787,1.787,0,0,1,1.813,1.783,1.789,1.789,0,0,1-1.813,1.793,1.791,1.791,0,0,1-1.823-1.793A1.789,1.789,0,0,1,141.342-31.14Zm0,3.277a1.446,1.446,0,0,0,1.452-1.494,1.446,1.446,0,0,0-1.452-1.484,1.449,1.449,0,0,0-1.463,1.484A1.449,1.449,0,0,0,141.342-27.863Zm.29-1.367.588.908h-.351l-.546-.894h-.36v.894h-.314v-2.062h.788c.489,0,.732.18.732.587A.537.537,0,0,1,141.632-29.23Zm-.67-.25h.375c.266,0,.5-.019.5-.336,0-.256-.233-.3-.451-.3h-.427Z" transform="translate(0 39.197)" fill-rule="evenodd"/>
  </g>
</svg>
