<svg xmlns="http://www.w3.org/2000/svg" width="22" height="22" viewBox="0 0 22 22">
  <path id="Icon_awesome-phone" data-name="Icon awesome-phone" d="M21.2,1.057,16.731.025a1.038,1.038,0,0,0-1.182.6L13.487,5.435a1.029,1.029,0,0,0,.3,1.2l2.6,2.131a15.924,15.924,0,0,1-7.614,7.614l-2.131-2.6a1.03,1.03,0,0,0-1.2-.3L.627,15.545a1.044,1.044,0,0,0-.6,1.186L1.057,21.2a1.031,1.031,0,0,0,1.005.8A19.935,19.935,0,0,0,22,2.062,1.03,1.03,0,0,0,21.2,1.057Z" transform="translate(0.001 0.001)" fill="#ff6f00"/>
</svg>
