<?xml version="1.0" encoding="utf-8"?><svg viewBox="0 0 26 24" xmlns="http://www.w3.org/2000/svg" xmlns:xlink="http://www.w3.org/1999/xlink"><style>:root>svg{display:none}:root>svg:target{display:block}</style><svg viewBox="0 0 12 22" id="angle-next"><path d="M11.998 11.342a1.765 1.765 0 00-.485-1.158L3.041 1.359A1.767 1.767 0 00.493 3.808l7.292 7.6-7.292 7.6a1.767 1.767 0 102.548 2.45l8.472-8.826c.33-.346.505-.812.486-1.29z"/></svg><svg viewBox="0 0 12 22" id="angle-prev"><path d="M.002 10.658c.014.432.186.844.485 1.158l8.472 8.825a1.767 1.767 0 002.548-2.449l-7.292-7.6 7.292-7.6A1.767 1.767 0 008.959.542L.487 9.369c-.33.346-.505.812-.485 1.29z"/></svg><svg viewBox="0 0 26 24" id="basket"><path d="M.82 1.663C-.273 1.663-.273 0 .82 0h6.512c.408 0 .748.296.818.684l.939 4.021H24.57c.561.011.966.543.79 1.088l-2.73 8.377a.832.832 0 01-.805.626h-10.38l.377 1.612h11.28c1.094 0 1.094 1.662 0 1.662H11.165a.832.832 0 01-.81-.643L6.675 1.662H.82zm12.885 17.666a2.34 2.34 0 012.335 2.336A2.341 2.341 0 0113.705 24a2.337 2.337 0 01-2.335-2.335 2.34 2.34 0 012.335-2.336zm6.698 0a2.335 2.335 0 110 4.67 2.335 2.335 0 010-4.67z"/></svg></svg>