<svg xmlns="http://www.w3.org/2000/svg" xmlns:xlink="http://www.w3.org/1999/xlink" width="407.681" height="61.451" viewBox="0 0 407.681 61.451">
  <defs>
    <linearGradient id="linear-gradient" x1="0.13" y1="0.163" x2="1.092" y2="1.104" gradientUnits="objectBoundingBox">
      <stop offset="0" stop-color="#ff484c"/>
      <stop offset="0.498" stop-color="#d617c4"/>
      <stop offset="1" stop-color="#6f3fff"/>
    </linearGradient>
  </defs>
  <g id="Logo" transform="translate(0 61.451)">
    <path id="Path_15" data-name="Path 15" d="M30.725-61.451A30.74,30.74,0,0,1,61.451-30.725,30.74,30.74,0,0,1,30.725,0,30.74,30.74,0,0,1,0-30.725,30.74,30.74,0,0,1,30.725-61.451Z" fill-rule="evenodd" fill="url(#linear-gradient)"/>
    <path id="Path_16" data-name="Path 16" d="M33.4-39.386a3.328,3.328,0,0,1,1.217-4.541,3.328,3.328,0,0,1,4.54,1.217,3.328,3.328,0,0,1-1.216,4.541A3.328,3.328,0,0,1,33.4-39.386ZM50.186-23.6a4.966,4.966,0,0,1-4.3,7.45H15.566a4.967,4.967,0,0,1-4.3-7.45L27.847-52.321a3.324,3.324,0,0,1,4.541-1.217A3.324,3.324,0,0,1,33.6-49L19.183-24.02a.814.814,0,0,0,.7,1.221H41.563a.814.814,0,0,0,.7-1.221l-4.158-7.2a3.324,3.324,0,0,1,1.216-4.541,3.324,3.324,0,0,1,4.541,1.217Z" fill="#fff" fill-rule="evenodd"/>
    <path id="Union_4" data-name="Union 4" d="M-102.4,201.416a9.267,9.267,0,0,1-3.61-3.88,12.51,12.51,0,0,1-1.256-5.719A12.445,12.445,0,0,1-106,186.063a9.4,9.4,0,0,1,3.615-3.873A10.724,10.724,0,0,1-96.8,180.8a11.11,11.11,0,0,1,4.886,1.013,8.166,8.166,0,0,1,3.318,2.846,8.372,8.372,0,0,1,1.345,4.3h-5.58a4.356,4.356,0,0,0-1.242-2.574,3.61,3.61,0,0,0-2.631-.979,3.959,3.959,0,0,0-2.394.742,4.792,4.792,0,0,0-1.589,2.159,9.184,9.184,0,0,0-.569,3.427,9.488,9.488,0,0,0,.563,3.47,4.772,4.772,0,0,0,1.589,2.18,3.966,3.966,0,0,0,2.4.75,3.944,3.944,0,0,0,1.825-.417,3.553,3.553,0,0,0,1.347-1.215,4.625,4.625,0,0,0,.7-1.922h5.58a8.735,8.735,0,0,1-1.326,4.3,8.083,8.083,0,0,1-3.268,2.894,10.916,10.916,0,0,1-4.927,1.04A10.832,10.832,0,0,1-102.4,201.416Zm-73.083.014a9.33,9.33,0,0,1-3.63-3.859,12.39,12.39,0,0,1-1.277-5.754,12.449,12.449,0,0,1,1.277-5.781,9.33,9.33,0,0,1,3.63-3.859A10.84,10.84,0,0,1-169.9,180.8a10.837,10.837,0,0,1,5.586,1.382,9.324,9.324,0,0,1,3.63,3.859,12.449,12.449,0,0,1,1.278,5.781,12.39,12.39,0,0,1-1.278,5.754,9.324,9.324,0,0,1-3.63,3.859,10.845,10.845,0,0,1-5.586,1.381A10.849,10.849,0,0,1-175.487,201.43Zm3.123-15.276a5.136,5.136,0,0,0-1.513,2.3,10.082,10.082,0,0,0-.507,3.317,10.082,10.082,0,0,0,.507,3.317,5.09,5.09,0,0,0,1.513,2.3,3.758,3.758,0,0,0,2.491.84,3.657,3.657,0,0,0,2.457-.84,5.171,5.171,0,0,0,1.493-2.3,10.081,10.081,0,0,0,.507-3.317,10.081,10.081,0,0,0-.507-3.317,5.218,5.218,0,0,0-1.493-2.3,3.635,3.635,0,0,0-2.457-.848A3.735,3.735,0,0,0-172.364,186.154ZM62.928,201.777a3.21,3.21,0,0,1-.978-2.354,3.168,3.168,0,0,1,.978-2.332,3.308,3.308,0,0,1,4.685,0,3.228,3.228,0,0,1,.535,4.005,3.556,3.556,0,0,1-1.214,1.207,3.138,3.138,0,0,1-1.652.451A3.209,3.209,0,0,1,62.928,201.777Zm-215.013-.292a8.551,8.551,0,0,1-3.109-3.707,14.144,14.144,0,0,1-1.146-6.017,13.963,13.963,0,0,1,1.18-6.1,8.506,8.506,0,0,1,3.144-3.651,8.044,8.044,0,0,1,4.31-1.214,6.628,6.628,0,0,1,2.992.6,5.944,5.944,0,0,1,1.943,1.5,7.831,7.831,0,0,1,1.131,1.756h.18V173.966h5.9v28.428h-5.829V198.98h-.25a7.651,7.651,0,0,1-1.173,1.756,5.924,5.924,0,0,1-1.958,1.436,6.791,6.791,0,0,1-2.921.57A7.987,7.987,0,0,1-152.085,201.486Zm3.811-15.193a4.837,4.837,0,0,0-1.513,2.192,9.434,9.434,0,0,0-.514,3.248,9.53,9.53,0,0,0,.521,3.284,4.949,4.949,0,0,0,1.513,2.22,3.782,3.782,0,0,0,2.45.8,3.784,3.784,0,0,0,2.422-.784,4.947,4.947,0,0,0,1.526-2.2,9.379,9.379,0,0,0,.535-3.318,9.367,9.367,0,0,0-.527-3.3,4.75,4.75,0,0,0-1.526-2.165,3.886,3.886,0,0,0-2.429-.763A3.829,3.829,0,0,0-148.274,186.293Zm69.605,15.825a5.231,5.231,0,0,1-2.492-2.028,6.2,6.2,0,0,1-.875-3.47v-11.1h-2.915v-4.441h2.915v-5.108h5.914v5.108h4.011v4.441h-4.011v10.328a2.653,2.653,0,0,0,.25,1.27,1.364,1.364,0,0,0,.7.632,2.824,2.824,0,0,0,1.049.18,4.65,4.65,0,0,0,.832-.076l.639-.118.93,4.4c-.3.094-.713.2-1.249.327a10.514,10.514,0,0,1-1.958.23q-.242.009-.477.009A8.621,8.621,0,0,1-78.669,202.118Zm-48.59-.417a6.639,6.639,0,0,1-2.533-2.762,9.487,9.487,0,0,1-.923-4.289V181.074h5.913v12.521a4.316,4.316,0,0,0,1.013,2.984,3.449,3.449,0,0,0,2.679,1.1,4.2,4.2,0,0,0,2-.493,3.81,3.81,0,0,0,1.506-1.464,4.546,4.546,0,0,0,.562-2.4V181.074h5.914v21.321h-5.677v-3.873h-.222a6.305,6.305,0,0,1-2.395,3.012,7.073,7.073,0,0,1-4.073,1.138A7.185,7.185,0,0,1-127.259,201.7Zm230.032.694V181.074h5.913v21.321Zm-9.828,0-2.1-6.483H80.576l-2.109,6.483h-6.44l9.814-28.428h7.745l9.8,28.428ZM89.317,191.22l-3.492-10.758H85.6L82.1,191.22Zm-283.828,11.174V181.074h5.732v3.72h.222a5.54,5.54,0,0,1,1.958-3.005,5.165,5.165,0,0,1,3.164-1.021,8.958,8.958,0,0,1,.958.056,6.859,6.859,0,0,1,.9.153v5.246a7.807,7.807,0,0,0-1.153-.221,10.326,10.326,0,0,0-1.346-.1,4.743,4.743,0,0,0-2.326.563,4.175,4.175,0,0,0-1.61,1.561,4.444,4.444,0,0,0-.589,2.3v12.063Zm-25.207,0V173.966H-208.5a11.46,11.46,0,0,1,5.511,1.229,8.474,8.474,0,0,1,3.478,3.4,10.177,10.177,0,0,1,1.2,5,10,10,0,0,1-1.222,5,8.435,8.435,0,0,1-3.533,3.372,11.936,11.936,0,0,1-5.586,1.208h-5.053v9.217Zm10.091-14.034a6.046,6.046,0,0,0,2.866-.6,3.965,3.965,0,0,0,1.695-1.679,5.279,5.279,0,0,0,.562-2.479,5.224,5.224,0,0,0-.562-2.477,3.9,3.9,0,0,0-1.7-1.652,6.246,6.246,0,0,0-2.887-.59h-4.053v9.481Zm313.115-10.917a2.843,2.843,0,0,1,0-4.22,3.327,3.327,0,0,1,4.511,0,2.845,2.845,0,0,1,0,4.22,3.327,3.327,0,0,1-4.511,0Z" transform="translate(298.745 -222.314)" fill="#fff"/>
    <path id="Union_5" data-name="Union 5" d="M109.471,37.706a8.219,8.219,0,0,1-3.255-2.13,6.543,6.543,0,0,1-1.569-3.026l5.469-.735a3.594,3.594,0,0,0,.791,1.193,3.911,3.911,0,0,0,1.437.9,6.192,6.192,0,0,0,2.185.339,5.184,5.184,0,0,0,3.186-.937,3.654,3.654,0,0,0,1.256-3.13v-3.9h-.25a5.607,5.607,0,0,1-1.165,1.68,5.888,5.888,0,0,1-2,1.291,7.688,7.688,0,0,1-2.915.5,8.673,8.673,0,0,1-4.366-1.117,7.856,7.856,0,0,1-3.123-3.429A13.022,13.022,0,0,1,104,19.349a13.8,13.8,0,0,1,1.18-6.052,8.457,8.457,0,0,1,3.143-3.637,8.079,8.079,0,0,1,4.311-1.208,6.672,6.672,0,0,1,3,.6,5.906,5.906,0,0,1,1.949,1.5,8.225,8.225,0,0,1,1.146,1.756h.222V8.731h5.872V30.26a7.538,7.538,0,0,1-1.332,4.553,8.075,8.075,0,0,1-3.686,2.755,14.714,14.714,0,0,1-5.405.923A13.75,13.75,0,0,1,109.471,37.706Zm2.588-23.764a4.793,4.793,0,0,0-1.513,2.173,9.2,9.2,0,0,0-.514,3.207,8.778,8.778,0,0,0,.521,3.185,4.508,4.508,0,0,0,1.512,2.068,4.474,4.474,0,0,0,4.874.014,4.515,4.515,0,0,0,1.526-2.055A8.663,8.663,0,0,0,119,19.322a9.107,9.107,0,0,0-.526-3.255,4.751,4.751,0,0,0-1.527-2.145,4.245,4.245,0,0,0-4.886.021ZM34.695,28.7a6.838,6.838,0,0,1-2.936-4.824l5.816-.305a2.96,2.96,0,0,0,1.277,1.964,5.417,5.417,0,0,0,5.1.069,1.832,1.832,0,0,0,.965-1.562,1.648,1.648,0,0,0-.68-1.325,4.954,4.954,0,0,0-2.054-.8l-3.693-.736a8.8,8.8,0,0,1-4.643-2.165,5.359,5.359,0,0,1-1.52-3.928,5.722,5.722,0,0,1,1.118-3.54A7.094,7.094,0,0,1,36.6,9.258a12.9,12.9,0,0,1,4.768-.806,10.546,10.546,0,0,1,6.364,1.708,6.593,6.593,0,0,1,2.714,4.649l-5.414.333a2.845,2.845,0,0,0-.6-1.256,3.279,3.279,0,0,0-1.2-.9,4.223,4.223,0,0,0-1.77-.34,4.376,4.376,0,0,0-2.318.576,1.739,1.739,0,0,0-.944,1.534,1.642,1.642,0,0,0,.611,1.292,4.845,4.845,0,0,0,2.1.846l3.858.778A9.56,9.56,0,0,1,49.4,19.724a4.835,4.835,0,0,1,1.527,3.721A5.829,5.829,0,0,1,49.7,27.122a8.016,8.016,0,0,1-3.36,2.464,12.747,12.747,0,0,1-4.906.881A11.471,11.471,0,0,1,34.695,28.7Zm24.749,1.075a5.226,5.226,0,0,1-2.491-2.027,6.2,6.2,0,0,1-.875-3.47v-11.1H53.163V8.731h2.915V3.623h5.913V8.731H66v4.442H61.991V23.5a2.654,2.654,0,0,0,.249,1.27,1.372,1.372,0,0,0,.7.632,2.819,2.819,0,0,0,1.048.18,4.66,4.66,0,0,0,.833-.076l.638-.118.93,4.4c-.3.094-.712.2-1.249.327a10.5,10.5,0,0,1-1.957.229q-.242.009-.477.009A8.609,8.609,0,0,1,59.444,29.774Zm34.779.278V17.531a4.313,4.313,0,0,0-1-3.061,3.6,3.6,0,0,0-2.79-1.1,4.209,4.209,0,0,0-2.1.513,3.538,3.538,0,0,0-1.416,1.493,5.178,5.178,0,0,0-.52,2.353V30.052H80.48V8.731h5.636v3.762h.25a5.991,5.991,0,0,1,2.373-2.95,7.217,7.217,0,0,1,4.04-1.09,7.5,7.5,0,0,1,3.873.972,6.612,6.612,0,0,1,2.568,2.769,9.322,9.322,0,0,1,.915,4.282V30.052Zm-24.375,0V8.731h5.913V30.052Zm-47.777,0V8.731h5.912V30.052ZM0,30.052V1.624H6.01V25.1H18.2v4.955ZM70.563,5.1a2.8,2.8,0,0,1-.937-2.117,2.788,2.788,0,0,1,.937-2.1,3.328,3.328,0,0,1,4.512,0,2.788,2.788,0,0,1,.936,2.1A2.8,2.8,0,0,1,75.074,5.1a3.328,3.328,0,0,1-4.512,0Zm-47.777,0a2.805,2.805,0,0,1-.938-2.117,2.789,2.789,0,0,1,.938-2.1,3.328,3.328,0,0,1,4.512,0,2.788,2.788,0,0,1,.936,2.1A2.8,2.8,0,0,1,27.3,5.1a3.328,3.328,0,0,1-4.512,0Z" transform="translate(231.034 -49.971)" fill="#c4c4c4"/>
  </g>
</svg>
