<svg xmlns="http://www.w3.org/2000/svg" xmlns:xlink="http://www.w3.org/1999/xlink" width="433.382" height="25.121" viewBox="0 0 433.382 25.121">
  <defs>
    <linearGradient id="linear-gradient" y1="1" x2="1" y2="1" gradientUnits="objectBoundingBox">
      <stop offset="0" stop-color="#ff484c"/>
      <stop offset="0.498" stop-color="#d617c4"/>
      <stop offset="1" stop-color="#6f3fff"/>
    </linearGradient>
  </defs>
  <path id="Path_32" data-name="Path 32" d="M13,62.978c-1.7,0-3.192-.873-3.456-2.092-.291-1.344,1.022-2.6,2.933-2.8,4.585-.491,10.651-1.187,17.976-2.027,80.152-9.193,324.064-37.17,410.836,2.4,1.622.74,2.085,2.264,1.033,3.4a4.466,4.466,0,0,1-4.841.727c-84.5-38.532-326.41-10.785-405.9-1.667-7.355.844-13.445,1.542-18.048,2.035A4.99,4.99,0,0,1,13,62.978Z" transform="translate(-9.5 -37.857)" fill="url(#linear-gradient)"/>
</svg>
