<?xml version="1.0" encoding="utf-8"?><svg viewBox="0 0 525 430" xmlns="http://www.w3.org/2000/svg" xmlns:xlink="http://www.w3.org/1999/xlink"><style>:root>svg{display:none}:root>svg:target{display:block}</style><svg viewBox="0 0 525 430" fill="none" id="decor-ic"><path d="M249.815-2.323c-38.794 20.367-67.966 53.17-81.931 92.112 24.301 8.121 46.74 20.341 66.158 36.018 4.971-27.393 22.087-51.646 47.301-67.007 25.207-15.362 56.259-20.461 85.787-14.089 29.522 6.371 54.895 23.647 70.091 47.727 15.196 24.08 18.863 52.822 10.132 79.398-8.732 26.583-29.084 48.636-56.23 60.926-27.147 12.298-58.662 13.732-87.078 3.974a111.024 111.024 0 01-21.237-9.91c-14.908-8.348-27.397-19.878-36.399-33.598-19.652-31.487-50.053-56.204-86.504-70.322a118.827 118.827 0 00-17.688-6.005 179.596 179.596 0 00-17.648-4.233c-46.313-8.759-94.472-.77-134.39 22.302-39.917 23.073-68.503 59.44-79.762 101.478-11.256 42.03-4.31 86.476 19.38 124.018 23.692 37.543 62.29 65.268 107.705 77.365 45.416 12.101 94.132 7.638 135.938-12.459 41.806-20.096 73.444-54.256 88.305-95.328-24.301-8.121-46.74-20.342-66.159-36.018-4.97 27.393-22.086 51.646-47.3 67.006-25.208 15.363-56.26 20.462-85.787 14.09-29.523-6.371-54.896-23.648-70.091-47.727-15.196-24.08-18.863-52.822-10.132-79.399 8.731-26.582 29.084-48.635 56.23-60.926 27.147-12.297 58.662-13.731 87.078-3.973a110.992 110.992 0 0121.237 9.91c14.908 8.348 27.397 19.877 36.399 33.598 19.652 31.487 50.053 56.204 86.504 70.322a118.788 118.788 0 0017.688 6.005c5.752 1.546 11.763 3.157 17.652 4.23l-.004.002c58.903 11.059 119.891-5.088 163.155-43.187 43.268-38.101 63.289-93.303 53.569-147.674C512.062 61.931 473.843 15.32 419.527-8.392c-54.312-23.71-117.792-21.5-169.821 5.923l.109.146z" fill="#fff" fill-opacity=".12"/></svg><svg viewBox="0 0 39 30" fill="none" id="maestro"><path d="M37.774 19.304v-.462h-.118l-.137.317-.136-.317h-.119v.462h.084v-.349l.128.301h.087l.128-.301v.35h.083zm-.75 0v-.383h.152v-.078h-.387v.078h.152v.383h.083z" fill="#0099DF"/><path d="M24.326 21.293H14.09V2.55h10.236v18.743z" fill="#6C6BBD"/><path d="M14.745 11.92c0-3.802 1.748-7.188 4.469-9.371A11.513 11.513 0 0011.984 0C5.523 0 .286 5.337.286 11.92c0 6.584 5.237 11.92 11.698 11.92 2.729 0 5.24-.952 7.23-2.548a11.982 11.982 0 01-4.469-9.372z" fill="#EB001B"/><path d="M38.132 11.92c0 6.583-5.237 11.92-11.699 11.92-2.728 0-5.24-.953-7.23-2.549a11.98 11.98 0 004.469-9.371 11.98 11.98 0 00-4.469-9.371A11.515 11.515 0 0126.433 0c6.462 0 11.699 5.337 11.699 11.92z" fill="#0099DF"/><path d="M27.777 26.586c.137 0 .332.026.482.086l-.209.649a1.077 1.077 0 00-.422-.08c-.442 0-.663.291-.663.814v1.775h-.676v-3.165h.67v.384c.175-.278.428-.463.819-.463zm-2.497.708h-1.105v1.43c0 .318.11.53.449.53.175 0 .396-.06.597-.179l.195.589c-.214.152-.552.245-.844.245-.8 0-1.079-.437-1.079-1.172v-1.443h-.63v-.629h.63v-.96h.682v.96h1.105v.63zm-8.65.675c.072-.457.344-.768.825-.768.435 0 .715.278.787.768H16.63zm2.314.279c-.006-.987-.605-1.662-1.476-1.662-.91 0-1.546.675-1.546 1.662 0 1.005.663 1.66 1.592 1.66.468 0 .896-.118 1.274-.443l-.332-.51c-.26.213-.591.332-.903.332-.436 0-.832-.206-.929-.775h2.306c.008-.086.014-.172.014-.264zm2.97-.775a1.967 1.967 0 00-.969-.272c-.37 0-.591.14-.591.371 0 .212.233.272.526.311l.318.046c.677.1 1.086.391 1.086.948 0 .602-.52 1.033-1.416 1.033-.508 0-.976-.133-1.346-.411l.318-.537c.227.18.566.331 1.034.331.461 0 .709-.138.709-.384 0-.178-.176-.278-.547-.33l-.319-.046c-.694-.1-1.072-.418-1.072-.934 0-.63.508-1.013 1.294-1.013.494 0 .942.113 1.266.33l-.292.557zm8.333-.233c-.138 0-.267.025-.387.074a.92.92 0 00-.515.531c-.05.125-.074.263-.074.413 0 .151.024.288.074.413a.922.922 0 00.515.531c.12.05.249.075.387.075.14 0 .27-.024.388-.075a.934.934 0 00.519-.53c.05-.126.074-.263.074-.414 0-.15-.025-.288-.074-.413a.932.932 0 00-.519-.531 1.007 1.007 0 00-.388-.074zm0-.654c.242 0 .465.042.67.128a1.617 1.617 0 011.012 1.544c0 .239-.043.46-.127.664-.085.203-.202.38-.352.53-.15.15-.328.266-.533.351a1.731 1.731 0 01-.67.128c-.24 0-.464-.043-.669-.128a1.616 1.616 0 01-.53-.351 1.631 1.631 0 01-.35-.53 1.708 1.708 0 01-.128-.664c0-.238.043-.46.128-.664a1.605 1.605 0 01.88-.88c.205-.086.429-.128.67-.128zm-17.565 1.662c0-.557.358-1.014.942-1.014.559 0 .936.438.936 1.014 0 .576-.377 1.012-.936 1.012-.584 0-.942-.456-.942-1.012zm2.515 0v-1.583h-.676v.384c-.215-.284-.54-.463-.981-.463-.871 0-1.553.695-1.553 1.662 0 .966.682 1.662 1.553 1.662.442 0 .766-.18.981-.464v.384h.676v-1.582zm-3.808 1.582v-1.986c0-.748-.468-1.252-1.221-1.258-.397-.007-.807.119-1.093.563-.214-.351-.552-.563-1.027-.563-.33 0-.655.099-.909.47v-.39h-.676v3.164h.682v-1.754c0-.55.3-.842.76-.842.449 0 .677.298.677.835v1.76h.682v-1.753c0-.55.312-.842.76-.842.462 0 .683.298.683.835v1.76h.682zM32.657 29.593v.078h.07a.069.069 0 00.038-.01c.01-.006.015-.016.015-.03 0-.012-.005-.022-.015-.028a.064.064 0 00-.038-.01h-.07zm.071-.055a.13.13 0 01.085.026c.02.016.03.039.03.068a.08.08 0 01-.024.06.117.117 0 01-.068.028l.093.11h-.072l-.087-.109h-.028v.11h-.061v-.293h.132zm-.019.392a.24.24 0 00.22-.15.25.25 0 00-.127-.32.221.221 0 00-.093-.018.229.229 0 00-.094.018.23.23 0 00-.128.13.236.236 0 00-.019.096c0 .034.006.066.02.095.01.03.028.056.05.078a.247.247 0 00.172.071zm0-.559c.044 0 .085.008.123.025a.307.307 0 01.191.29.304.304 0 01-.091.22.316.316 0 01-.448 0 .323.323 0 01-.09-.22.317.317 0 01.192-.29.307.307 0 01.123-.025z" fill="#231F20"/></svg><svg viewBox="0 0 39 30" fill="none" id="mastercard"><path d="M24.761 2.629H14.207v18.67h10.554V2.63z" fill="#FF5A00"/><path d="M14.91 11.964c0-3.793 1.81-7.16 4.59-9.335a12.114 12.114 0 00-7.44-2.54C5.394.088 0 5.398 0 11.963c0 6.564 5.394 11.875 12.06 11.875 2.815 0 5.395-.957 7.44-2.54a11.787 11.787 0 01-4.59-9.335z" fill="#EB001B"/><path d="M39 11.964c0 6.564-5.394 11.875-12.06 11.875-2.815 0-5.395-.957-7.44-2.54 2.814-2.18 4.59-5.542 4.59-9.335 0-3.793-1.811-7.16-4.59-9.335a12.095 12.095 0 017.435-2.54C33.605.088 39 5.433 39 11.963z" fill="#F79E1B"/><path d="M7.068 29.846v-1.979c0-.757-.468-1.253-1.272-1.253-.402 0-.84.13-1.14.561-.234-.361-.57-.56-1.073-.56-.336 0-.672.1-.937.46v-.395h-.703v3.166h.703v-1.748c0-.561.3-.827.769-.827.468 0 .702.296.702.827v1.748h.703v-1.748c0-.561.336-.827.769-.827.468 0 .703.296.703.827v1.748h.776zM17.49 26.68h-1.14v-.957h-.703v.957h-.636v.626h.636v1.453c0 .726.3 1.153 1.105 1.153.3 0 .636-.1.87-.23l-.203-.597c-.203.131-.437.166-.605.166-.335 0-.468-.2-.468-.527v-1.418h1.14v-.627h.004zm5.964-.07c-.402 0-.672.2-.84.462v-.396h-.702v3.167h.702v-1.784c0-.526.235-.826.672-.826.133 0 .3.034.437.065l.203-.66c-.14-.028-.34-.028-.472-.028zm-9.013.33c-.335-.23-.804-.33-1.307-.33-.804 0-1.339.396-1.339 1.023 0 .526.402.826 1.104.922l.336.035c.367.065.57.165.57.33 0 .23-.27.396-.738.396-.468 0-.839-.165-1.073-.33l-.336.526c.367.265.87.396 1.374.396.937 0 1.476-.43 1.476-1.023 0-.56-.438-.857-1.105-.956l-.336-.035c-.3-.035-.534-.1-.534-.296 0-.23.234-.361.605-.361.402 0 .804.165 1.007.265l.296-.561zm18.692-.33c-.402 0-.671.2-.839.462v-.396h-.702v3.167h.702v-1.784c0-.526.234-.826.672-.826.132 0 .3.034.437.065l.203-.653c-.137-.035-.336-.035-.473-.035zm-8.977 1.653c0 .957.672 1.649 1.71 1.649.468 0 .804-.1 1.14-.362l-.336-.56c-.27.2-.535.295-.84.295-.57 0-.971-.396-.971-1.022 0-.596.402-.992.972-1.022.3 0 .57.1.839.296l.335-.561c-.335-.266-.67-.362-1.14-.362-1.037-.004-1.709.692-1.709 1.649zm6.499 0v-1.584h-.703v.396c-.234-.296-.57-.46-1.007-.46-.905 0-1.608.691-1.608 1.648s.703 1.649 1.608 1.649c.469 0 .804-.166 1.007-.461v.395h.703v-1.583zm-2.58 0c0-.561.367-1.022.972-1.022.57 0 .972.43.972 1.022 0 .561-.402 1.022-.972 1.022-.601-.034-.972-.465-.972-1.022zm-8.407-1.653c-.937 0-1.608.661-1.608 1.65 0 .99.67 1.648 1.643 1.648.468 0 .937-.13 1.307-.43l-.335-.496c-.27.2-.605.33-.937.33-.437 0-.87-.2-.972-.757h2.377v-.265c.031-1.019-.574-1.68-1.475-1.68zm0 .596c.437 0 .737.265.804.757h-1.675c.066-.426.367-.757.87-.757zm17.454 1.057v-2.836h-.702v1.648c-.234-.296-.57-.46-1.007-.46-.906 0-1.608.691-1.608 1.648s.702 1.649 1.608 1.649c.468 0 .804-.166 1.007-.461v.395h.702v-1.583zm-2.58 0c0-.561.367-1.022.972-1.022.57 0 .972.43.972 1.022 0 .561-.402 1.022-.972 1.022-.605-.034-.972-.465-.972-1.022zm-23.52 0v-1.584h-.702v.396c-.235-.296-.57-.46-1.007-.46-.906 0-1.609.691-1.609 1.648s.703 1.649 1.609 1.649c.468 0 .804-.166 1.007-.461v.395h.702v-1.583zm-2.611 0c0-.561.367-1.022.972-1.022.57 0 .972.43.972 1.022 0 .561-.402 1.022-.972 1.022-.605-.034-.972-.465-.972-1.022z" fill="#000"/></svg><svg viewBox="0 0 24 24" fill="none" id="tel"><path d="M18.247 15.876c-.785-.774-1.763-.774-2.543 0-.594.59-1.188 1.179-1.773 1.778-.16.165-.294.2-.489.09-.385-.21-.794-.38-1.164-.61-1.723-1.083-3.166-2.476-4.445-4.045-.634-.779-1.198-1.613-1.593-2.552-.08-.19-.065-.314.09-.469.595-.574 1.174-1.164 1.758-1.753.814-.82.814-1.778-.005-2.602-.464-.47-.929-.929-1.393-1.398-.48-.48-.954-.964-1.439-1.439-.784-.764-1.763-.764-2.542.005-.599.59-1.173 1.194-1.783 1.773C.362 5.19.077 5.843.017 6.607c-.094 1.244.21 2.417.64 3.56.879 2.368 2.217 4.47 3.84 6.399 2.193 2.607 4.81 4.67 7.871 6.158 1.379.669 2.807 1.183 4.36 1.268 1.07.06 1.998-.21 2.742-1.044.51-.57 1.084-1.088 1.623-1.633.8-.809.804-1.788.01-2.587-.949-.954-1.902-1.903-2.856-2.852zM17.293 11.896l1.843-.315a8.237 8.237 0 00-2.303-4.445 8.192 8.192 0 00-4.694-2.342l-.26 1.853a6.356 6.356 0 013.636 1.813 6.354 6.354 0 011.778 3.436zM20.174 3.886A13.589 13.589 0 0012.384 0l-.26 1.853a11.783 11.783 0 016.732 3.356 11.774 11.774 0 013.301 6.368L24 11.262a13.689 13.689 0 00-3.826-7.376z" fill="#D10931"/></svg><svg viewBox="0 0 65 22" fill="none" id="visa"><path d="M28.166 21.406h-5.265L26.194.662h5.265l-3.293 20.744zM47.254 1.169C46.216.749 44.57.286 42.532.286c-5.2 0-8.862 2.824-8.884 6.862-.044 2.98 2.621 4.635 4.614 5.628 2.038 1.015 2.73 1.678 2.73 2.582-.02 1.39-1.646 2.03-3.162 2.03-2.102 0-3.229-.33-4.94-1.103l-.694-.331-.737 4.656c1.235.573 3.51 1.082 5.873 1.104 5.525 0 9.122-2.78 9.164-7.084.021-2.361-1.386-4.17-4.42-5.65-1.841-.948-2.97-1.588-2.97-2.56.023-.882.955-1.786 3.034-1.786 1.712-.045 2.97.374 3.922.794l.476.22.716-4.48zM54.252 14.057c.434-1.192 2.103-5.804 2.103-5.804-.022.044.432-1.214.692-1.986l.369 1.788s.997 4.965 1.213 6.002h-4.377zm6.5-13.395h-4.073c-1.256 0-2.21.375-2.752 1.721l-7.821 19.022h5.525l1.105-3.111h6.76c.152.728.628 3.111.628 3.111H65L60.752.662zM18.504.662l-5.157 14.145-.563-2.869c-.954-3.31-3.944-6.906-7.28-8.695l4.723 18.14h5.568L24.072.664h-5.568z" fill="#00579F"/><path d="M8.558.662H.087L0 1.082c6.608 1.72 10.985 5.87 12.783 10.857l-1.842-9.533C10.638 1.08 9.707.706 8.558.662z" fill="#00579F"/></svg><svg viewBox="0 0 70 20" fill="none" id="word"><path fill-rule="evenodd" clip-rule="evenodd" d="M18.67.357v.009c-.009 0-2.706-.009-3.426 2.526-.66 2.325-2.518 8.742-2.57 8.919h-.513s-1.901-6.56-2.57-8.927C8.874.349 6.167.357 6.167.357H0v19.286h6.166V8.189h.514l3.597 11.454h4.282l3.597-11.445h.514v11.445h6.166V.357H18.67zM41.194.357s-1.806.16-2.654 2.021l-4.368 9.433h-.514V.357H27.49v19.286h5.824s1.893-.169 2.74-2.021l4.282-9.433h.515v11.454h6.166V.357h-5.824zM49.759 9.116v10.527h6.166v-6.148h6.68c2.912 0 5.379-1.827 6.295-4.38H49.759z" fill="#4DB45E"/><path fill-rule="evenodd" clip-rule="evenodd" d="M62.606.357H48.895c.685 3.672 3.485 6.62 7.107 7.58.823.219 1.688.337 2.578.337H69.15a6.37 6.37 0 00.137-1.348c0-3.63-2.989-6.569-6.68-6.569z" fill="url(#fpaint0_linear_16_167)"/><defs><linearGradient id="fpaint0_linear_16_167" x1="48.896" y1="4.315" x2="69.286" y2="4.315" gradientUnits="userSpaceOnUse"><stop offset=".3" stop-color="#00B4E6"/><stop offset="1" stop-color="#088CCB"/></linearGradient></defs></svg></svg>